<svg width="37" height="37" viewBox="0 0 37 37" fill="none" xmlns="http://www.w3.org/2000/svg">
<path d="M5.39584 30.8334C4.77918 30.8334 4.23959 30.6021 3.77709 30.1396C3.31459 29.6771 3.08334 29.1375 3.08334 28.5209V8.47919C3.08334 7.86252 3.31459 7.32294 3.77709 6.86044C4.23959 6.39794 4.77918 6.16669 5.39584 6.16669H31.6042C32.2208 6.16669 32.7604 6.39794 33.2229 6.86044C33.6854 7.32294 33.9167 7.86252 33.9167 8.47919V28.5209C33.9167 29.1375 33.6854 29.6771 33.2229 30.1396C32.7604 30.6021 32.2208 30.8334 31.6042 30.8334H5.39584ZM18.5 19.1938L5.39584 10.599V28.5209H31.6042V10.599L18.5 19.1938ZM18.5 16.8813L31.45 8.47919H5.58855L18.5 16.8813ZM5.39584 10.599V8.47919V28.5209V10.599Z" fill="#666666"/>
</svg>
